<?xml version="1.0" encoding="UTF-8"?>
<!DOCTYPE svg PUBLIC "-//W3C//DTD SVG 1.1//EN" "http://www.w3.org/Graphics/SVG/1.1/DTD/svg11.dtd">
<svg width="181mm" height="90mm" viewBox="0 0 18100 9000" version="1.1" xmlns="http://www.w3.org/2000/svg" stroke-width="28.222" stroke-linejoin="round" xml:space="preserve">
 <path fill="rgb(255,255,255)" stroke="none" d="M 9036,8999 L 0,8999 0,0 18072,0 18072,8999 9036,8999 Z"/>
 <path fill="none" stroke="rgb(179,179,179)" stroke-linejoin="round" d="M 9799,7191 L 1887,7191 1887,1474 17711,1474 17711,7191 9799,7191 Z"/>
 <path fill="none" stroke="rgb(179,179,179)" stroke-linejoin="round" d="M 17711,7190 L 1887,7190"/>
 <path fill="none" stroke="rgb(179,179,179)" stroke-linejoin="round" d="M 17711,6554 L 1887,6554"/>
 <path fill="none" stroke="rgb(179,179,179)" stroke-linejoin="round" d="M 17711,5919 L 1887,5919"/>
 <path fill="none" stroke="rgb(179,179,179)" stroke-linejoin="round" d="M 17711,5284 L 1887,5284"/>
 <path fill="none" stroke="rgb(179,179,179)" stroke-linejoin="round" d="M 17711,4648 L 1887,4648"/>
 <path fill="none" stroke="rgb(179,179,179)" stroke-linejoin="round" d="M 17711,4014 L 1887,4014"/>
 <path fill="none" stroke="rgb(179,179,179)" stroke-linejoin="round" d="M 17711,3379 L 1887,3379"/>
 <path fill="none" stroke="rgb(179,179,179)" stroke-linejoin="round" d="M 17711,2743 L 1887,2743"/>
 <path fill="none" stroke="rgb(179,179,179)" stroke-linejoin="round" d="M 17711,2108 L 1887,2108"/>
 <path fill="none" stroke="rgb(179,179,179)" stroke-linejoin="round" d="M 17711,1473 L 1887,1473"/>
 <path fill="none" stroke="rgb(179,179,179)" stroke-linejoin="round" d="M 1887,7340 L 1887,7190"/>
 <path fill="none" stroke="rgb(179,179,179)" stroke-linejoin="round" d="M 1887,7340 L 1887,7190"/>
 <path fill="none" stroke="rgb(179,179,179)" stroke-linejoin="round" d="M 4017,7340 L 4017,7190"/>
 <path fill="none" stroke="rgb(179,179,179)" stroke-linejoin="round" d="M 4017,7340 L 4017,7190"/>
 <path fill="none" stroke="rgb(179,179,179)" stroke-linejoin="round" d="M 6147,7340 L 6147,7190"/>
 <path fill="none" stroke="rgb(179,179,179)" stroke-linejoin="round" d="M 6147,7340 L 6147,7190"/>
 <path fill="none" stroke="rgb(179,179,179)" stroke-linejoin="round" d="M 8277,7340 L 8277,7190"/>
 <path fill="none" stroke="rgb(179,179,179)" stroke-linejoin="round" d="M 8277,7340 L 8277,7190"/>
 <path fill="none" stroke="rgb(179,179,179)" stroke-linejoin="round" d="M 10407,7340 L 10407,7190"/>
 <path fill="none" stroke="rgb(179,179,179)" stroke-linejoin="round" d="M 10407,7340 L 10407,7190"/>
 <path fill="none" stroke="rgb(179,179,179)" stroke-linejoin="round" d="M 12537,7340 L 12537,7190"/>
 <path fill="none" stroke="rgb(179,179,179)" stroke-linejoin="round" d="M 12537,7340 L 12537,7190"/>
 <path fill="none" stroke="rgb(179,179,179)" stroke-linejoin="round" d="M 14667,7340 L 14667,7190"/>
 <path fill="none" stroke="rgb(179,179,179)" stroke-linejoin="round" d="M 14667,7340 L 14667,7190"/>
 <path fill="none" stroke="rgb(179,179,179)" stroke-linejoin="round" d="M 16798,7340 L 16798,7190"/>
 <path fill="none" stroke="rgb(179,179,179)" stroke-linejoin="round" d="M 16798,7340 L 16798,7190"/>
 <path fill="none" stroke="rgb(179,179,179)" stroke-linejoin="round" d="M 1887,7190 L 17711,7190"/>
 <path fill="none" stroke="rgb(179,179,179)" stroke-linejoin="round" d="M 1737,7190 L 1887,7190"/>
 <path fill="none" stroke="rgb(179,179,179)" stroke-linejoin="round" d="M 1737,7190 L 1887,7190"/>
 <path fill="none" stroke="rgb(179,179,179)" stroke-linejoin="round" d="M 1737,6554 L 1887,6554"/>
 <path fill="none" stroke="rgb(179,179,179)" stroke-linejoin="round" d="M 1737,6554 L 1887,6554"/>
 <path fill="none" stroke="rgb(179,179,179)" stroke-linejoin="round" d="M 1737,5919 L 1887,5919"/>
 <path fill="none" stroke="rgb(179,179,179)" stroke-linejoin="round" d="M 1737,5919 L 1887,5919"/>
 <path fill="none" stroke="rgb(179,179,179)" stroke-linejoin="round" d="M 1737,5284 L 1887,5284"/>
 <path fill="none" stroke="rgb(179,179,179)" stroke-linejoin="round" d="M 1737,5284 L 1887,5284"/>
 <path fill="none" stroke="rgb(179,179,179)" stroke-linejoin="round" d="M 1737,4648 L 1887,4648"/>
 <path fill="none" stroke="rgb(179,179,179)" stroke-linejoin="round" d="M 1737,4648 L 1887,4648"/>
 <path fill="none" stroke="rgb(179,179,179)" stroke-linejoin="round" d="M 1737,4014 L 1887,4014"/>
 <path fill="none" stroke="rgb(179,179,179)" stroke-linejoin="round" d="M 1737,4014 L 1887,4014"/>
 <path fill="none" stroke="rgb(179,179,179)" stroke-linejoin="round" d="M 1737,3379 L 1887,3379"/>
 <path fill="none" stroke="rgb(179,179,179)" stroke-linejoin="round" d="M 1737,3379 L 1887,3379"/>
 <path fill="none" stroke="rgb(179,179,179)" stroke-linejoin="round" d="M 1737,2743 L 1887,2743"/>
 <path fill="none" stroke="rgb(179,179,179)" stroke-linejoin="round" d="M 1737,2743 L 1887,2743"/>
 <path fill="none" stroke="rgb(179,179,179)" stroke-linejoin="round" d="M 1737,2108 L 1887,2108"/>
 <path fill="none" stroke="rgb(179,179,179)" stroke-linejoin="round" d="M 1737,2108 L 1887,2108"/>
 <path fill="none" stroke="rgb(179,179,179)" stroke-linejoin="round" d="M 1737,1473 L 1887,1473"/>
 <path fill="none" stroke="rgb(179,179,179)" stroke-linejoin="round" d="M 1737,1473 L 1887,1473"/>
 <path fill="none" stroke="rgb(179,179,179)" stroke-linejoin="round" d="M 1887,7190 L 1887,1473"/>
 <path fill="rgb(0,69,134)" stroke="none" d="M 17102,7190 L 17406,7190 17406,4648 17102,4648 17102,7190 Z"/>
 <path fill="rgb(0,69,134)" stroke="none" d="M 16798,7190 L 17102,7190 17102,2108 16798,2108 16798,7190 Z"/>
 <path fill="rgb(0,69,134)" stroke="none" d="M 16493,7190 L 16798,7190 16798,4014 16493,4014 16493,7190 Z"/>
 <path fill="rgb(0,69,134)" stroke="none" d="M 16189,7190 L 16493,7190 16493,5919 16189,5919 16189,7190 Z"/>
 <path fill="rgb(0,69,134)" stroke="none" d="M 15885,7190 L 16189,7190 16189,5919 15885,5919 15885,7190 Z"/>
 <path fill="rgb(0,69,134)" stroke="none" d="M 15580,7190 L 15885,7190 15885,5919 15580,5919 15580,7190 Z"/>
 <path fill="rgb(0,69,134)" stroke="none" d="M 15276,7190 L 15580,7190 15580,6554 15276,6554 15276,7190 Z"/>
 <path fill="rgb(0,69,134)" stroke="none" d="M 14972,7190 L 15276,7190 15276,5919 14972,5919 14972,7190 Z"/>
 <path fill="rgb(0,69,134)" stroke="none" d="M 14667,7190 L 14972,7190 14972,4648 14667,4648 14667,7190 Z"/>
 <path fill="rgb(0,69,134)" stroke="none" d="M 14363,7190 L 14667,7190 14667,5284 14363,5284 14363,7190 Z"/>
 <path fill="rgb(0,69,134)" stroke="none" d="M 14059,7190 L 14363,7190 14363,5919 14059,5919 14059,7190 Z"/>
 <path fill="rgb(0,69,134)" stroke="none" d="M 13754,7190 L 14059,7190 14059,5919 13754,5919 13754,7190 Z"/>
 <path fill="rgb(0,69,134)" stroke="none" d="M 13450,7190 L 13754,7190 13754,6554 13450,6554 13450,7190 Z"/>
 <path fill="rgb(0,69,134)" stroke="none" d="M 12537,7190 L 12841,7190 12841,6872 12537,6872 12537,7190 Z"/>
 <path fill="rgb(0,69,134)" stroke="none" d="M 11928,7190 L 12233,7190 12233,6554 11928,6554 11928,7190 Z"/>
 <path fill="rgb(0,69,134)" stroke="none" d="M 11320,7190 L 11624,7190 11624,6554 11320,6554 11320,7190 Z"/>
 <path fill="rgb(0,69,134)" stroke="none" d="M 7973,7190 L 8277,7190 8277,6554 7973,6554 7973,7190 Z"/>
 <path fill="rgb(0,69,134)" stroke="none" d="M 5843,7190 L 6147,7190 6147,3379 5843,3379 5843,7190 Z"/>
 <path fill="rgb(0,69,134)" stroke="none" d="M 5538,7190 L 5843,7190 5843,5284 5538,5284 5538,7190 Z"/>
 <path fill="rgb(0,69,134)" stroke="none" d="M 5234,7190 L 5538,7190 5538,4648 5234,4648 5234,7190 Z"/>
 <path fill="rgb(0,69,134)" stroke="none" d="M 4930,7190 L 5234,7190 5234,6872 4930,6872 4930,7190 Z"/>
 <path fill="rgb(0,69,134)" stroke="none" d="M 4625,7190 L 4930,7190 4930,6554 4625,6554 4625,7190 Z"/>
 <path fill="rgb(0,69,134)" stroke="none" d="M 4321,7190 L 4625,7190 4625,4014 4321,4014 4321,7190 Z"/>
 <path fill="rgb(0,69,134)" stroke="none" d="M 4017,7190 L 4321,7190 4321,6554 4017,6554 4017,7190 Z"/>
 <path fill="rgb(0,69,134)" stroke="none" d="M 3408,7190 L 3712,7190 3712,5284 3408,5284 3408,7190 Z"/>
 <path fill="rgb(0,69,134)" stroke="none" d="M 2495,7190 L 2799,7190 2799,5919 2495,5919 2495,7190 Z"/>
 <path fill="rgb(0,69,134)" stroke="none" d="M 1887,7190 L 2191,7190 2191,6554 1887,6554 1887,7190 Z"/>
 <text class="TextShape"><tspan class="TextParagraph" font-family="Liberation Sans, sans-serif" font-size="353px" font-weight="400"><tspan class="TextPosition" x="1377" y="7758"><tspan fill="rgb(0,0,0)" stroke="none">15/07/17</tspan></tspan></tspan></text>
 <text class="TextShape"><tspan class="TextParagraph" font-family="Liberation Sans, sans-serif" font-size="353px" font-weight="400"><tspan class="TextPosition" x="3507" y="7758"><tspan fill="rgb(0,0,0)" stroke="none">22/07/17</tspan></tspan></tspan></text>
 <text class="TextShape"><tspan class="TextParagraph" font-family="Liberation Sans, sans-serif" font-size="353px" font-weight="400"><tspan class="TextPosition" x="5637" y="7758"><tspan fill="rgb(0,0,0)" stroke="none">29/07/17</tspan></tspan></tspan></text>
 <text class="TextShape"><tspan class="TextParagraph" font-family="Liberation Sans, sans-serif" font-size="353px" font-weight="400"><tspan class="TextPosition" x="7768" y="7758"><tspan fill="rgb(0,0,0)" stroke="none">05/08/17</tspan></tspan></tspan></text>
 <text class="TextShape"><tspan class="TextParagraph" font-family="Liberation Sans, sans-serif" font-size="353px" font-weight="400"><tspan class="TextPosition" x="9898" y="7758"><tspan fill="rgb(0,0,0)" stroke="none">12/08/17</tspan></tspan></tspan></text>
 <text class="TextShape"><tspan class="TextParagraph" font-family="Liberation Sans, sans-serif" font-size="353px" font-weight="400"><tspan class="TextPosition" x="12028" y="7758"><tspan fill="rgb(0,0,0)" stroke="none">19/08/17</tspan></tspan></tspan></text>
 <text class="TextShape"><tspan class="TextParagraph" font-family="Liberation Sans, sans-serif" font-size="353px" font-weight="400"><tspan class="TextPosition" x="14158" y="7758"><tspan fill="rgb(0,0,0)" stroke="none">26/08/17</tspan></tspan></tspan></text>
 <text class="TextShape"><tspan class="TextParagraph" font-family="Liberation Sans, sans-serif" font-size="353px" font-weight="400"><tspan class="TextPosition" x="16289" y="7758"><tspan fill="rgb(0,0,0)" stroke="none">02/09/17</tspan></tspan></tspan></text>
 <text class="TextShape"><tspan class="TextParagraph" font-family="Liberation Sans, sans-serif" font-size="353px" font-weight="400"><tspan class="TextPosition" x="1452" y="7311"><tspan fill="rgb(0,0,0)" stroke="none">0</tspan></tspan></tspan></text>
 <text class="TextShape"><tspan class="TextParagraph" font-family="Liberation Sans, sans-serif" font-size="353px" font-weight="400"><tspan class="TextPosition" x="1452" y="6675"><tspan fill="rgb(0,0,0)" stroke="none">1</tspan></tspan></tspan></text>
 <text class="TextShape"><tspan class="TextParagraph" font-family="Liberation Sans, sans-serif" font-size="353px" font-weight="400"><tspan class="TextPosition" x="1452" y="6040"><tspan fill="rgb(0,0,0)" stroke="none">2</tspan></tspan></tspan></text>
 <text class="TextShape"><tspan class="TextParagraph" font-family="Liberation Sans, sans-serif" font-size="353px" font-weight="400"><tspan class="TextPosition" x="1452" y="5405"><tspan fill="rgb(0,0,0)" stroke="none">3</tspan></tspan></tspan></text>
 <text class="TextShape"><tspan class="TextParagraph" font-family="Liberation Sans, sans-serif" font-size="353px" font-weight="400"><tspan class="TextPosition" x="1452" y="4769"><tspan fill="rgb(0,0,0)" stroke="none">4</tspan></tspan></tspan></text>
 <text class="TextShape"><tspan class="TextParagraph" font-family="Liberation Sans, sans-serif" font-size="353px" font-weight="400"><tspan class="TextPosition" x="1452" y="4134"><tspan fill="rgb(0,0,0)" stroke="none">5</tspan></tspan></tspan></text>
 <text class="TextShape"><tspan class="TextParagraph" font-family="Liberation Sans, sans-serif" font-size="353px" font-weight="400"><tspan class="TextPosition" x="1452" y="3499"><tspan fill="rgb(0,0,0)" stroke="none">6</tspan></tspan></tspan></text>
 <text class="TextShape"><tspan class="TextParagraph" font-family="Liberation Sans, sans-serif" font-size="353px" font-weight="400"><tspan class="TextPosition" x="1452" y="2863"><tspan fill="rgb(0,0,0)" stroke="none">7</tspan></tspan></tspan></text>
 <text class="TextShape"><tspan class="TextParagraph" font-family="Liberation Sans, sans-serif" font-size="353px" font-weight="400"><tspan class="TextPosition" x="1452" y="2228"><tspan fill="rgb(0,0,0)" stroke="none">8</tspan></tspan></tspan></text>
 <text class="TextShape"><tspan class="TextParagraph" font-family="Liberation Sans, sans-serif" font-size="353px" font-weight="400"><tspan class="TextPosition" x="1452" y="1593"><tspan fill="rgb(0,0,0)" stroke="none">9</tspan></tspan></tspan></text>
 <text class="TextShape"><tspan class="TextParagraph" font-family="Liberation Sans, sans-serif" font-size="459px" font-weight="400"><tspan class="TextPosition" x="7898" y="851"><tspan fill="rgb(0,0,0)" stroke="none">Effort Chart</tspan></tspan></tspan></text>
 <text class="TextShape"><tspan class="TextParagraph" font-family="Liberation Sans, sans-serif" font-size="318px" font-weight="400"><tspan class="TextPosition" x="9198" y="8405"><tspan fill="rgb(0,0,0)" stroke="none">Date</tspan></tspan></tspan></text>
 <text class="TextShape" transform="translate(837,5548) rotate(-90) translate(-837,-5548)"><tspan class="TextParagraph" font-family="Liberation Sans, sans-serif" font-size="318px" font-weight="400"><tspan class="TextPosition" x="837" y="5548"><tspan fill="rgb(0,0,0)" stroke="none">Hours of effort</tspan></tspan></tspan></text>
</svg>