<svg width="149" height="47" viewBox="0 0 149 47" version="1.1" xmlns="http://www.w3.org/2000/svg" xmlns:xlink="http://www.w3.org/1999/xlink">
<title>hexBtn</title>
<desc>Created using Figma</desc>
<g id="Canvas" transform="translate(-1490 -51)">
<g id="hexBtn">
<g id="Rectangle 3">
<mask id="mask0_outline_ins">
<use xlink:href="#path0_fill" fill="white" transform="translate(1490 51)"/>
</mask>
<g mask="url(#mask0_outline_ins)">
<use xlink:href="#path1_stroke_2x" transform="translate(1490 51)" fill="#F6F4D2"/>
</g>
</g>
<g id="Hexagon Mode">
<use xlink:href="#path2_fill" transform="translate(1499 61)" fill="#F6F4D2"/>
</g>
</g>
</g>
<defs>
<path id="path0_fill" d="M 0 3C 0 1.34315 1.34315 0 3 0L 146 0C 147.657 0 149 1.34315 149 3L 149 44C 149 45.6569 147.657 47 146 47L 3 47C 1.34315 47 0 45.6569 0 44L 0 3Z"/>
<path id="path1_stroke_2x" d="M 3 2L 146 2L 146 -2L 3 -2L 3 2ZM 147 3L 147 44L 151 44L 151 3L 147 3ZM 146 45L 3 45L 3 49L 146 49L 146 45ZM 2 44L 2 3L -2 3L -2 44L 2 44ZM 3 -2C 0.238576 -2 -2 0.238576 -2 3L 2 3C 2 2.44772 2.44772 2 3 2L 3 -2ZM 146 2C 146.552 2 147 2.44772 147 3L 151 3C 151 0.238576 148.761 -2 146 -2L 146 2ZM 147 44C 147 44.5523 146.552 45 146 45L 146 49C 148.761 49 151 46.7614 151 44L 147 44ZM 3 45C 2.44772 45 2 44.5523 2 44L -2 44C -2 46.7614 0.238576 49 3 49L 3 45Z"/>
<path id="path2_fill" d="M 12.2246 20L 9.07715 20L 9.07715 13.3076L 4.41504 13.3076L 4.41504 20L 1.25684 20L 1.25684 4.35938L 4.41504 4.35938L 4.41504 10.6865L 9.07715 10.6865L 9.07715 4.35938L 12.2246 4.35938L 12.2246 20ZM 19.3145 20.2148C 17.7533 20.2148 16.5358 19.7493 15.6621 18.8184C 14.7884 17.8874 14.3516 16.5553 14.3516 14.8223L 14.3516 13.8984C 14.3516 12.0651 14.7526 10.6507 15.5547 9.65527C 16.3568 8.65983 17.5062 8.16211 19.0029 8.16211C 20.4639 8.16211 21.5632 8.63118 22.3008 9.56934C 23.0384 10.5003 23.4144 11.8825 23.4287 13.7158L 23.4287 15.209L 17.3809 15.209C 17.4238 16.0684 17.6136 16.6986 17.9502 17.0996C 18.2868 17.4935 18.806 17.6904 19.5078 17.6904C 20.5247 17.6904 21.3734 17.3431 22.0537 16.6484L 23.2461 18.4854C 22.8737 19.001 22.333 19.4199 21.624 19.7422C 20.915 20.0573 20.1452 20.2148 19.3145 20.2148ZM 17.4023 13.082L 20.4424 13.082L 20.4424 12.8027C 20.4281 12.1081 20.3135 11.5817 20.0986 11.2236C 19.8838 10.8656 19.5114 10.6865 18.9814 10.6865C 18.4515 10.6865 18.0648 10.8763 17.8213 11.2559C 17.585 11.6354 17.4453 12.2441 17.4023 13.082ZM 29.0361 11.8252L 30.3896 8.37695L 33.6123 8.37695L 30.959 14.0596L 33.709 20L 30.4756 20L 29.0469 16.3584L 27.6289 20L 24.3848 20L 27.1348 14.0596L 24.5029 8.37695L 27.7363 8.37695L 29.0361 11.8252ZM 40.6377 20C 40.5518 19.821 40.4658 19.5202 40.3799 19.0977C 39.8356 19.8424 39.098 20.2148 38.167 20.2148C 37.193 20.2148 36.3838 19.8926 35.7393 19.248C 35.1019 18.6035 34.7832 17.7692 34.7832 16.7451C 34.7832 15.5277 35.1699 14.5859 35.9434 13.9199C 36.724 13.2539 37.8447 12.9137 39.3057 12.8994L 40.2295 12.8994L 40.2295 11.9648C 40.2295 11.4421 40.14 11.0732 39.9609 10.8584C 39.7819 10.6436 39.5205 10.5361 39.1768 10.5361C 38.4176 10.5361 38.0381 10.9801 38.0381 11.8682L 34.998 11.8682C 34.998 10.7939 35.3991 9.90951 36.2012 9.21484C 37.0104 8.51302 38.0309 8.16211 39.2627 8.16211C 40.5374 8.16211 41.5221 8.49512 42.2168 9.16113C 42.9186 9.81999 43.2695 10.7653 43.2695 11.9971L 43.2695 17.4648C 43.2839 18.4674 43.4271 19.2516 43.6992 19.8174L 43.6992 20L 40.6377 20ZM 38.8438 17.8301C 39.1803 17.8301 39.4668 17.762 39.7031 17.626C 39.9395 17.4899 40.1149 17.3288 40.2295 17.1426L 40.2295 14.7256L 39.499 14.7256C 38.9834 14.7256 38.5752 14.8903 38.2744 15.2197C 37.9808 15.5492 37.834 15.9896 37.834 16.541C 37.834 17.4004 38.1706 17.8301 38.8438 17.8301ZM 45.1064 13.834C 45.1064 11.929 45.4502 10.5075 46.1377 9.56934C 46.8252 8.63118 47.7884 8.16211 49.0273 8.16211C 50.0801 8.16211 50.8929 8.57747 51.4658 9.4082L 51.584 8.37695L 54.3232 8.37695L 54.3232 20C 54.3232 21.4824 53.9079 22.6139 53.0771 23.3945C 52.2464 24.1823 51.054 24.5762 49.5 24.5762C 48.8626 24.5762 48.193 24.4473 47.4912 24.1895C 46.7894 23.9388 46.2666 23.6165 45.9229 23.2227L 46.9434 21.1172C 47.2298 21.418 47.6022 21.6615 48.0605 21.8477C 48.5189 22.041 48.9521 22.1377 49.3604 22.1377C 50.0407 22.1377 50.5277 21.973 50.8213 21.6436C 51.1221 21.3213 51.276 20.7985 51.2832 20.0752L 51.2832 19.0762C 50.7031 19.8353 49.9476 20.2148 49.0166 20.2148C 47.7777 20.2148 46.818 19.735 46.1377 18.7754C 45.4645 17.8086 45.1208 16.4479 45.1064 14.6934L 45.1064 13.834ZM 48.1465 14.5967C 48.1465 15.6709 48.2861 16.4551 48.5654 16.9492C 48.8447 17.4362 49.2887 17.6797 49.8975 17.6797C 50.5205 17.6797 50.9824 17.4541 51.2832 17.0029L 51.2832 11.4492C 50.9681 10.9551 50.5133 10.708 49.9189 10.708C 49.3174 10.708 48.8698 10.9551 48.5762 11.4492C 48.2897 11.9434 48.1465 12.7383 48.1465 13.834L 48.1465 14.5967ZM 56.1816 13.8125C 56.1816 12.0508 56.597 10.6686 57.4277 9.66602C 58.2585 8.66341 59.4079 8.16211 60.876 8.16211C 62.3584 8.16211 63.515 8.66341 64.3457 9.66602C 65.1764 10.6686 65.5918 12.0579 65.5918 13.834L 65.5918 14.5752C 65.5918 16.3441 65.18 17.7262 64.3564 18.7217C 63.5329 19.7171 62.3799 20.2148 60.8975 20.2148C 59.4079 20.2148 58.2477 19.7171 57.417 18.7217C 56.5934 17.7191 56.1816 16.3298 56.1816 14.5537L 56.1816 13.8125ZM 59.2324 14.5752C 59.2324 16.652 59.7874 17.6904 60.8975 17.6904C 61.9215 17.6904 62.473 16.8239 62.5518 15.0908L 62.5625 13.8125C 62.5625 12.7526 62.4157 11.9684 62.1221 11.46C 61.8285 10.9443 61.4131 10.6865 60.876 10.6865C 60.3604 10.6865 59.9557 10.9443 59.6621 11.46C 59.3757 11.9684 59.2324 12.7526 59.2324 13.8125L 59.2324 14.5752ZM 70.2754 8.37695L 70.3613 9.52637C 71.0488 8.61686 71.9476 8.16211 73.0576 8.16211C 75.0557 8.16211 76.0833 9.56217 76.1406 12.3623L 76.1406 20L 73.0898 20L 73.0898 12.5879C 73.0898 11.929 72.9896 11.4528 72.7891 11.1592C 72.5957 10.8584 72.252 10.708 71.7578 10.708C 71.2064 10.708 70.7767 10.9909 70.4688 11.5566L 70.4688 20L 67.418 20L 67.418 8.37695L 70.2754 8.37695ZM 87.667 4.35938L 90.6211 15.6709L 93.5645 4.35938L 97.6895 4.35938L 97.6895 20L 94.5205 20L 94.5205 15.7676L 94.8105 9.24707L 91.6846 20L 89.5361 20L 86.4102 9.24707L 86.7002 15.7676L 86.7002 20L 83.542 20L 83.542 4.35938L 87.667 4.35938ZM 99.7305 13.8125C 99.7305 12.0508 100.146 10.6686 100.977 9.66602C 101.807 8.66341 102.957 8.16211 104.425 8.16211C 105.907 8.16211 107.064 8.66341 107.895 9.66602C 108.725 10.6686 109.141 12.0579 109.141 13.834L 109.141 14.5752C 109.141 16.3441 108.729 17.7262 107.905 18.7217C 107.082 19.7171 105.929 20.2148 104.446 20.2148C 102.957 20.2148 101.797 19.7171 100.966 18.7217C 100.142 17.7191 99.7305 16.3298 99.7305 14.5537L 99.7305 13.8125ZM 102.781 14.5752C 102.781 16.652 103.336 17.6904 104.446 17.6904C 105.47 17.6904 106.022 16.8239 106.101 15.0908L 106.111 13.8125C 106.111 12.7526 105.965 11.9684 105.671 11.46C 105.377 10.9443 104.962 10.6865 104.425 10.6865C 103.909 10.6865 103.505 10.9443 103.211 11.46C 102.924 11.9684 102.781 12.7526 102.781 13.8125L 102.781 14.5752ZM 110.634 13.834C 110.634 11.929 110.956 10.5075 111.601 9.56934C 112.245 8.63118 113.183 8.16211 114.415 8.16211C 115.31 8.16211 116.055 8.54883 116.649 9.32227L 116.649 3.5L 119.711 3.5L 119.711 20L 116.95 20L 116.811 18.8184C 116.188 19.7493 115.385 20.2148 114.404 20.2148C 113.187 20.2148 112.256 19.7493 111.611 18.8184C 110.974 17.8874 110.648 16.5195 110.634 14.7148L 110.634 13.834ZM 113.685 14.5967C 113.685 15.7425 113.806 16.5446 114.05 17.0029C 114.293 17.4541 114.705 17.6797 115.285 17.6797C 115.887 17.6797 116.341 17.4111 116.649 16.874L 116.649 11.5674C 116.349 10.9945 115.897 10.708 115.296 10.708C 114.737 10.708 114.329 10.9336 114.071 11.3848C 113.813 11.8359 113.685 12.638 113.685 13.791L 113.685 14.5967ZM 126.65 20.2148C 125.089 20.2148 123.872 19.7493 122.998 18.8184C 122.124 17.8874 121.688 16.5553 121.688 14.8223L 121.688 13.8984C 121.688 12.0651 122.089 10.6507 122.891 9.65527C 123.693 8.65983 124.842 8.16211 126.339 8.16211C 127.8 8.16211 128.899 8.63118 129.637 9.56934C 130.374 10.5003 130.75 11.8825 130.765 13.7158L 130.765 15.209L 124.717 15.209C 124.76 16.0684 124.95 16.6986 125.286 17.0996C 125.623 17.4935 126.142 17.6904 126.844 17.6904C 127.861 17.6904 128.709 17.3431 129.39 16.6484L 130.582 18.4854C 130.21 19.001 129.669 19.4199 128.96 19.7422C 128.251 20.0573 127.481 20.2148 126.65 20.2148ZM 124.738 13.082L 127.778 13.082L 127.778 12.8027C 127.764 12.1081 127.649 11.5817 127.435 11.2236C 127.22 10.8656 126.847 10.6865 126.317 10.6865C 125.787 10.6865 125.401 10.8763 125.157 11.2559C 124.921 11.6354 124.781 12.2441 124.738 13.082Z"/>
</defs>
</svg>
