<svg width="149" height="47" viewBox="0 0 149 47" version="1.1" xmlns="http://www.w3.org/2000/svg" xmlns:xlink="http://www.w3.org/1999/xlink">
<title>highscoreBtn</title>
<desc>Created using Figma</desc>
<g id="Canvas" transform="translate(-1490 -125)">
<g id="highscoreBtn">
<g id="Rectangle 3">
<mask id="mask0_outline_ins">
<use xlink:href="#path0_fill" fill="white" transform="translate(1490 125)"/>
</mask>
<g mask="url(#mask0_outline_ins)">
<use xlink:href="#path1_stroke_2x" transform="translate(1490 125)" fill="#F6F4D2"/>
</g>
</g>
<g id="High Scores">
<use xlink:href="#path2_fill" transform="translate(1512 136)" fill="#F6F4D2"/>
</g>
</g>
</g>
<defs>
<path id="path0_fill" d="M 0 3C 0 1.34315 1.34315 0 3 0L 146 0C 147.657 0 149 1.34315 149 3L 149 44C 149 45.6569 147.657 47 146 47L 3 47C 1.34315 47 0 45.6569 0 44L 0 3Z"/>
<path id="path1_stroke_2x" d="M 3 2L 146 2L 146 -2L 3 -2L 3 2ZM 147 3L 147 44L 151 44L 151 3L 147 3ZM 146 45L 3 45L 3 49L 146 49L 146 45ZM 2 44L 2 3L -2 3L -2 44L 2 44ZM 3 -2C 0.238576 -2 -2 0.238576 -2 3L 2 3C 2 2.44772 2.44772 2 3 2L 3 -2ZM 146 2C 146.552 2 147 2.44772 147 3L 151 3C 151 0.238576 148.761 -2 146 -2L 146 2ZM 147 44C 147 44.5523 146.552 45 146 45L 146 49C 148.761 49 151 46.7614 151 44L 147 44ZM 3 45C 2.44772 45 2 44.5523 2 44L -2 44C -2 46.7614 0.238576 49 3 49L 3 45Z"/>
<path id="path2_fill" d="M 12.2246 20L 9.07715 20L 9.07715 13.3076L 4.41504 13.3076L 4.41504 20L 1.25684 20L 1.25684 4.35938L 4.41504 4.35938L 4.41504 10.6865L 9.07715 10.6865L 9.07715 4.35938L 12.2246 4.35938L 12.2246 20ZM 17.8105 20L 14.7598 20L 14.7598 8.37695L 17.8105 8.37695L 17.8105 20ZM 14.6201 5.36914C 14.6201 4.89648 14.7705 4.50977 15.0713 4.20898C 15.3721 3.9082 15.7731 3.75781 16.2744 3.75781C 16.7757 3.75781 17.1768 3.9082 17.4775 4.20898C 17.7783 4.50977 17.9287 4.89648 17.9287 5.36914C 17.9287 5.83464 17.7783 6.22135 17.4775 6.5293C 17.1839 6.83724 16.7829 6.99121 16.2744 6.99121C 15.766 6.99121 15.3613 6.83724 15.0605 6.5293C 14.7669 6.22135 14.6201 5.83464 14.6201 5.36914ZM 19.7979 13.834C 19.7979 11.929 20.1416 10.5075 20.8291 9.56934C 21.5166 8.63118 22.4798 8.16211 23.7188 8.16211C 24.7715 8.16211 25.5843 8.57747 26.1572 9.4082L 26.2754 8.37695L 29.0146 8.37695L 29.0146 20C 29.0146 21.4824 28.5993 22.6139 27.7686 23.3945C 26.9378 24.1823 25.7454 24.5762 24.1914 24.5762C 23.554 24.5762 22.8844 24.4473 22.1826 24.1895C 21.4808 23.9388 20.958 23.6165 20.6143 23.2227L 21.6348 21.1172C 21.9212 21.418 22.2936 21.6615 22.752 21.8477C 23.2103 22.041 23.6436 22.1377 24.0518 22.1377C 24.7321 22.1377 25.2191 21.973 25.5127 21.6436C 25.8135 21.3213 25.9674 20.7985 25.9746 20.0752L 25.9746 19.0762C 25.3945 19.8353 24.639 20.2148 23.708 20.2148C 22.4691 20.2148 21.5094 19.735 20.8291 18.7754C 20.1559 17.8086 19.8122 16.4479 19.7979 14.6934L 19.7979 13.834ZM 22.8379 14.5967C 22.8379 15.6709 22.9775 16.4551 23.2568 16.9492C 23.5361 17.4362 23.9801 17.6797 24.5889 17.6797C 25.2119 17.6797 25.6738 17.4541 25.9746 17.0029L 25.9746 11.4492C 25.6595 10.9551 25.2048 10.708 24.6104 10.708C 24.0088 10.708 23.5612 10.9551 23.2676 11.4492C 22.9811 11.9434 22.8379 12.7383 22.8379 13.834L 22.8379 14.5967ZM 34.1924 9.39746C 34.8512 8.57389 35.6605 8.16211 36.6201 8.16211C 37.68 8.16211 38.4857 8.53451 39.0371 9.2793C 39.5885 10.0241 39.8678 11.1341 39.875 12.6094L 39.875 20L 36.8242 20L 36.8242 12.6416C 36.8242 11.9613 36.7168 11.4707 36.502 11.1699C 36.2943 10.862 35.9541 10.708 35.4814 10.708C 34.93 10.708 34.5003 10.9622 34.1924 11.4707L 34.1924 20L 31.1523 20L 31.1523 3.5L 34.1924 3.5L 34.1924 9.39746ZM 53.8828 15.8965C 53.8828 15.2591 53.7181 14.7793 53.3887 14.457C 53.0664 14.1276 52.4756 13.7874 51.6162 13.4365C 50.0479 12.8421 48.9199 12.1475 48.2324 11.3525C 47.5449 10.5505 47.2012 9.60514 47.2012 8.5166C 47.2012 7.19889 47.6667 6.14258 48.5977 5.34766C 49.5358 4.54557 50.7246 4.14453 52.1641 4.14453C 53.1237 4.14453 53.9795 4.34863 54.7314 4.75684C 55.4834 5.15788 56.0599 5.72721 56.4609 6.46484C 56.8691 7.20247 57.0732 8.04036 57.0732 8.97852L 53.9258 8.97852C 53.9258 8.24805 53.7682 7.69303 53.4531 7.31348C 53.1452 6.92676 52.6976 6.7334 52.1104 6.7334C 51.5589 6.7334 51.1292 6.89811 50.8213 7.22754C 50.5133 7.5498 50.3594 7.98665 50.3594 8.53809C 50.3594 8.96777 50.5312 9.35807 50.875 9.70898C 51.2188 10.0527 51.8275 10.4108 52.7012 10.7832C 54.2266 11.3346 55.333 12.0114 56.0205 12.8135C 56.7152 13.6156 57.0625 14.6361 57.0625 15.875C 57.0625 17.2357 56.6292 18.2992 55.7627 19.0654C 54.8962 19.8317 53.7181 20.2148 52.2285 20.2148C 51.2188 20.2148 50.2985 20.0072 49.4678 19.5918C 48.637 19.1764 47.9854 18.582 47.5127 17.8086C 47.0472 17.0352 46.8145 16.1221 46.8145 15.0693L 49.9834 15.0693C 49.9834 15.9717 50.1589 16.627 50.5098 17.0352C 50.8607 17.4434 51.4336 17.6475 52.2285 17.6475C 53.3314 17.6475 53.8828 17.0638 53.8828 15.8965ZM 63.207 17.6904C 64.0879 17.6904 64.5355 17.1175 64.5498 15.9717L 67.4072 15.9717C 67.3929 17.2393 67.0026 18.2633 66.2363 19.0439C 65.4701 19.8245 64.4818 20.2148 63.2715 20.2148C 61.7747 20.2148 60.6325 19.7493 59.8447 18.8184C 59.057 17.8874 58.6559 16.516 58.6416 14.7041L 58.6416 13.7803C 58.6416 11.9541 59.0283 10.5612 59.8018 9.60156C 60.5824 8.64193 61.7318 8.16211 63.25 8.16211C 64.5319 8.16211 65.5417 8.55957 66.2793 9.35449C 67.0169 10.1423 67.3929 11.263 67.4072 12.7168L 64.5498 12.7168C 64.5426 12.0651 64.4352 11.5638 64.2275 11.2129C 64.0199 10.862 63.6761 10.6865 63.1963 10.6865C 62.6663 10.6865 62.2868 10.8763 62.0576 11.2559C 61.8285 11.6283 61.7067 12.3551 61.6924 13.4365L 61.6924 14.6182C 61.6924 15.5635 61.7389 16.2259 61.832 16.6055C 61.9251 16.9779 62.0791 17.2536 62.2939 17.4326C 62.5088 17.6045 62.8132 17.6904 63.207 17.6904ZM 68.7715 13.8125C 68.7715 12.0508 69.1868 10.6686 70.0176 9.66602C 70.8483 8.66341 71.9977 8.16211 73.4658 8.16211C 74.9482 8.16211 76.1048 8.66341 76.9355 9.66602C 77.7663 10.6686 78.1816 12.0579 78.1816 13.834L 78.1816 14.5752C 78.1816 16.3441 77.7699 17.7262 76.9463 18.7217C 76.1227 19.7171 74.9697 20.2148 73.4873 20.2148C 71.9977 20.2148 70.8376 19.7171 70.0068 18.7217C 69.1833 17.7191 68.7715 16.3298 68.7715 14.5537L 68.7715 13.8125ZM 71.8223 14.5752C 71.8223 16.652 72.3773 17.6904 73.4873 17.6904C 74.5114 17.6904 75.0628 16.8239 75.1416 15.0908L 75.1523 13.8125C 75.1523 12.7526 75.0055 11.9684 74.7119 11.46C 74.4183 10.9443 74.0029 10.6865 73.4658 10.6865C 72.9502 10.6865 72.5456 10.9443 72.252 11.46C 71.9655 11.9684 71.8223 12.7526 71.8223 13.8125L 71.8223 14.5752ZM 85.8193 11.3096L 84.8096 11.2236C 83.9788 11.2236 83.4167 11.5889 83.123 12.3193L 83.123 20L 80.0723 20L 80.0723 8.37695L 82.9404 8.37695L 83.0264 9.63379C 83.5062 8.65267 84.1686 8.16211 85.0137 8.16211C 85.3574 8.16211 85.6367 8.20866 85.8516 8.30176L 85.8193 11.3096ZM 91.8672 20.2148C 90.306 20.2148 89.0885 19.7493 88.2148 18.8184C 87.3411 17.8874 86.9043 16.5553 86.9043 14.8223L 86.9043 13.8984C 86.9043 12.0651 87.3053 10.6507 88.1074 9.65527C 88.9095 8.65983 90.0589 8.16211 91.5557 8.16211C 93.0166 8.16211 94.1159 8.63118 94.8535 9.56934C 95.5911 10.5003 95.9671 11.8825 95.9814 13.7158L 95.9814 15.209L 89.9336 15.209C 89.9766 16.0684 90.1663 16.6986 90.5029 17.0996C 90.8395 17.4935 91.3587 17.6904 92.0605 17.6904C 93.0775 17.6904 93.9261 17.3431 94.6064 16.6484L 95.7988 18.4854C 95.4264 19.001 94.8857 19.4199 94.1768 19.7422C 93.4678 20.0573 92.6979 20.2148 91.8672 20.2148ZM 89.9551 13.082L 92.9951 13.082L 92.9951 12.8027C 92.9808 12.1081 92.8662 11.5817 92.6514 11.2236C 92.4365 10.8656 92.0641 10.6865 91.5342 10.6865C 91.0042 10.6865 90.6175 10.8763 90.374 11.2559C 90.1377 11.6354 89.998 12.2441 89.9551 13.082ZM 102.846 16.8848C 102.846 16.627 102.72 16.3906 102.47 16.1758C 102.226 15.9538 101.678 15.6566 100.826 15.2842C 99.5729 14.7757 98.71 14.2493 98.2373 13.7051C 97.7718 13.1608 97.5391 12.484 97.5391 11.6748C 97.5391 10.6579 97.9043 9.81999 98.6348 9.16113C 99.3724 8.49512 100.346 8.16211 101.557 8.16211C 102.831 8.16211 103.852 8.49154 104.618 9.15039C 105.384 9.80924 105.768 10.6937 105.768 11.8037L 102.728 11.8037C 102.728 10.8584 102.334 10.3857 101.546 10.3857C 101.224 10.3857 100.959 10.486 100.751 10.6865C 100.543 10.887 100.439 11.1663 100.439 11.5244C 100.439 11.7822 100.554 12.0114 100.783 12.2119C 101.012 12.4053 101.553 12.6846 102.405 13.0498C 103.644 13.5081 104.518 14.0202 105.026 14.5859C 105.542 15.1445 105.8 15.8714 105.8 16.7666C 105.8 17.805 105.41 18.6393 104.629 19.2695C 103.848 19.8997 102.824 20.2148 101.557 20.2148C 100.704 20.2148 99.9525 20.0501 99.3008 19.7207C 98.6491 19.3841 98.137 18.9186 97.7646 18.3242C 97.3994 17.7298 97.2168 17.0889 97.2168 16.4014L 100.106 16.4014C 100.121 16.9313 100.243 17.3288 100.472 17.5938C 100.708 17.8587 101.091 17.9912 101.621 17.9912C 102.438 17.9912 102.846 17.6224 102.846 16.8848Z"/>
</defs>
</svg>
