<svg width="720" height="720" viewBox="0 0 720 720" version="1.1" xmlns="http://www.w3.org/2000/svg" xmlns:xlink="http://www.w3.org/1999/xlink">
<title>OuterStroke</title>
<desc>Created using Figma</desc>
<g id="Canvas" transform="translate(-1205 355)">
<g id="OuterStroke">
<mask id="mask0_outline_ins">
<use xlink:href="#path0_fill" fill="white" transform="translate(1205 -355)"/>
</mask>
<g mask="url(#mask0_outline_ins)">
<use xlink:href="#path1_stroke_2x" transform="translate(1205 -355)" fill="#F6F4D2"/>
</g>
</g>
</g>
<defs>
<path id="path0_fill" d="M 0 0L 720 0L 720 720L 0 720L 0 0Z"/>
<path id="path1_stroke_2x" d="M 0 0L 0 -8L -8 -8L -8 0L 0 0ZM 720 0L 728 0L 728 -8L 720 -8L 720 0ZM 720 720L 720 728L 728 728L 728 720L 720 720ZM 0 720L -8 720L -8 728L 0 728L 0 720ZM 0 8L 720 8L 720 -8L 0 -8L 0 8ZM 712 0L 712 720L 728 720L 728 0L 712 0ZM 720 712L 0 712L 0 728L 720 728L 720 712ZM 8 720L 8 0L -8 0L -8 720L 8 720Z"/>
</defs>
</svg>
