<svg width="149" height="47" viewBox="0 0 149 47" version="1.1" xmlns="http://www.w3.org/2000/svg" xmlns:xlink="http://www.w3.org/1999/xlink">
<title>stdBtn</title>
<desc>Created using Figma</desc>
<g id="Canvas" transform="translate(-1490 24)">
<g id="stdBtn">
<g id="Rectangle 3">
<mask id="mask0_outline_ins">
<use xlink:href="#path0_fill" fill="white" transform="translate(1490 -24)"/>
</mask>
<g mask="url(#mask0_outline_ins)">
<use xlink:href="#path1_stroke_2x" transform="translate(1490 -24)" fill="#F6F4D2"/>
</g>
</g>
<g id="title">
<use xlink:href="#path2_fill" transform="translate(1499 -14)" fill="#F6F4D2"/>
</g>
</g>
</g>
<defs>
<path id="path0_fill" d="M 0 3C 0 1.34315 1.34315 0 3 0L 146 0C 147.657 0 149 1.34315 149 3L 149 44C 149 45.6569 147.657 47 146 47L 3 47C 1.34315 47 0 45.6569 0 44L 0 3Z"/>
<path id="path1_stroke_2x" d="M 3 2L 146 2L 146 -2L 3 -2L 3 2ZM 147 3L 147 44L 151 44L 151 3L 147 3ZM 146 45L 3 45L 3 49L 146 49L 146 45ZM 2 44L 2 3L -2 3L -2 44L 2 44ZM 3 -2C 0.238576 -2 -2 0.238576 -2 3L 2 3C 2 2.44772 2.44772 2 3 2L 3 -2ZM 146 2C 146.552 2 147 2.44772 147 3L 151 3C 151 0.238576 148.761 -2 146 -2L 146 2ZM 147 44C 147 44.5523 146.552 45 146 45L 146 49C 148.761 49 151 46.7614 151 44L 147 44ZM 3 45C 2.44772 45 2 44.5523 2 44L -2 44C -2 46.7614 0.238576 49 3 49L 3 45Z"/>
<path id="path2_fill" d="M 7.86328 15.8965C 7.86328 15.2591 7.69857 14.7793 7.36914 14.457C 7.04688 14.1276 6.45605 13.7874 5.59668 13.4365C 4.02832 12.8421 2.90039 12.1475 2.21289 11.3525C 1.52539 10.5505 1.18164 9.60514 1.18164 8.5166C 1.18164 7.19889 1.64714 6.14258 2.57812 5.34766C 3.51628 4.54557 4.70508 4.14453 6.14453 4.14453C 7.10417 4.14453 7.95996 4.34863 8.71191 4.75684C 9.46387 5.15788 10.0404 5.72721 10.4414 6.46484C 10.8496 7.20247 11.0537 8.04036 11.0537 8.97852L 7.90625 8.97852C 7.90625 8.24805 7.7487 7.69303 7.43359 7.31348C 7.12565 6.92676 6.67806 6.7334 6.09082 6.7334C 5.53939 6.7334 5.1097 6.89811 4.80176 7.22754C 4.49382 7.5498 4.33984 7.98665 4.33984 8.53809C 4.33984 8.96777 4.51172 9.35807 4.85547 9.70898C 5.19922 10.0527 5.80794 10.4108 6.68164 10.7832C 8.20703 11.3346 9.31348 12.0114 10.001 12.8135C 10.6956 13.6156 11.043 14.6361 11.043 15.875C 11.043 17.2357 10.6097 18.2992 9.74316 19.0654C 8.87663 19.8317 7.69857 20.2148 6.20898 20.2148C 5.19922 20.2148 4.27897 20.0072 3.44824 19.5918C 2.61751 19.1764 1.96582 18.582 1.49316 17.8086C 1.02767 17.0352 0.794922 16.1221 0.794922 15.0693L 3.96387 15.0693C 3.96387 15.9717 4.13932 16.627 4.49023 17.0352C 4.84115 17.4434 5.41406 17.6475 6.20898 17.6475C 7.31185 17.6475 7.86328 17.0638 7.86328 15.8965ZM 16.5215 5.51953L 16.5215 8.37695L 18.0791 8.37695L 18.0791 10.665L 16.5215 10.665L 16.5215 16.4336C 16.5215 16.8919 16.5824 17.207 16.7041 17.3789C 16.833 17.5508 17.0765 17.6367 17.4346 17.6367C 17.7282 17.6367 17.9681 17.6117 18.1543 17.5615L 18.1328 19.9248C 17.6172 20.1182 17.0586 20.2148 16.457 20.2148C 14.4948 20.2148 13.5029 19.0905 13.4814 16.8418L 13.4814 10.665L 12.1387 10.665L 12.1387 8.37695L 13.4814 8.37695L 13.4814 5.51953L 16.5215 5.51953ZM 25.2764 20C 25.1904 19.821 25.1045 19.5202 25.0186 19.0977C 24.4743 19.8424 23.7367 20.2148 22.8057 20.2148C 21.8317 20.2148 21.0225 19.8926 20.3779 19.248C 19.7406 18.6035 19.4219 17.7692 19.4219 16.7451C 19.4219 15.5277 19.8086 14.5859 20.582 13.9199C 21.3626 13.2539 22.4834 12.9137 23.9443 12.8994L 24.8682 12.8994L 24.8682 11.9648C 24.8682 11.4421 24.7786 11.0732 24.5996 10.8584C 24.4206 10.6436 24.1592 10.5361 23.8154 10.5361C 23.0563 10.5361 22.6768 10.9801 22.6768 11.8682L 19.6367 11.8682C 19.6367 10.7939 20.0378 9.90951 20.8398 9.21484C 21.6491 8.51302 22.6696 8.16211 23.9014 8.16211C 25.1761 8.16211 26.1608 8.49512 26.8555 9.16113C 27.5573 9.81999 27.9082 10.7653 27.9082 11.9971L 27.9082 17.4648C 27.9225 18.4674 28.0658 19.2516 28.3379 19.8174L 28.3379 20L 25.2764 20ZM 23.4824 17.8301C 23.819 17.8301 24.1055 17.762 24.3418 17.626C 24.5781 17.4899 24.7536 17.3288 24.8682 17.1426L 24.8682 14.7256L 24.1377 14.7256C 23.6221 14.7256 23.2139 14.8903 22.9131 15.2197C 22.6195 15.5492 22.4727 15.9896 22.4727 16.541C 22.4727 17.4004 22.8092 17.8301 23.4824 17.8301ZM 32.8926 8.37695L 32.9785 9.52637C 33.666 8.61686 34.5648 8.16211 35.6748 8.16211C 37.6729 8.16211 38.7005 9.56217 38.7578 12.3623L 38.7578 20L 35.707 20L 35.707 12.5879C 35.707 11.929 35.6068 11.4528 35.4062 11.1592C 35.2129 10.8584 34.8691 10.708 34.375 10.708C 33.8236 10.708 33.3939 10.9909 33.0859 11.5566L 33.0859 20L 30.0352 20L 30.0352 8.37695L 32.8926 8.37695ZM 40.5303 13.834C 40.5303 11.929 40.8525 10.5075 41.4971 9.56934C 42.1416 8.63118 43.0798 8.16211 44.3115 8.16211C 45.2067 8.16211 45.9515 8.54883 46.5459 9.32227L 46.5459 3.5L 49.6074 3.5L 49.6074 20L 46.8467 20L 46.707 18.8184C 46.084 19.7493 45.2819 20.2148 44.3008 20.2148C 43.0833 20.2148 42.1523 19.7493 41.5078 18.8184C 40.8704 17.8874 40.5446 16.5195 40.5303 14.7148L 40.5303 13.834ZM 43.5811 14.5967C 43.5811 15.7425 43.7028 16.5446 43.9463 17.0029C 44.1898 17.4541 44.6016 17.6797 45.1816 17.6797C 45.7832 17.6797 46.238 17.4111 46.5459 16.874L 46.5459 11.5674C 46.2451 10.9945 45.7939 10.708 45.1924 10.708C 44.6338 10.708 44.2256 10.9336 43.9678 11.3848C 43.71 11.8359 43.5811 12.638 43.5811 13.791L 43.5811 14.5967ZM 57.374 20C 57.2881 19.821 57.2021 19.5202 57.1162 19.0977C 56.5719 19.8424 55.8343 20.2148 54.9033 20.2148C 53.9294 20.2148 53.1201 19.8926 52.4756 19.248C 51.8382 18.6035 51.5195 17.7692 51.5195 16.7451C 51.5195 15.5277 51.9062 14.5859 52.6797 13.9199C 53.4603 13.2539 54.5811 12.9137 56.042 12.8994L 56.9658 12.8994L 56.9658 11.9648C 56.9658 11.4421 56.8763 11.0732 56.6973 10.8584C 56.5182 10.6436 56.2568 10.5361 55.9131 10.5361C 55.154 10.5361 54.7744 10.9801 54.7744 11.8682L 51.7344 11.8682C 51.7344 10.7939 52.1354 9.90951 52.9375 9.21484C 53.7467 8.51302 54.7673 8.16211 55.999 8.16211C 57.2738 8.16211 58.2585 8.49512 58.9531 9.16113C 59.6549 9.81999 60.0059 10.7653 60.0059 11.9971L 60.0059 17.4648C 60.0202 18.4674 60.1634 19.2516 60.4355 19.8174L 60.4355 20L 57.374 20ZM 55.5801 17.8301C 55.9167 17.8301 56.2031 17.762 56.4395 17.626C 56.6758 17.4899 56.8512 17.3288 56.9658 17.1426L 56.9658 14.7256L 56.2354 14.7256C 55.7197 14.7256 55.3115 14.8903 55.0107 15.2197C 54.7171 15.5492 54.5703 15.9896 54.5703 16.541C 54.5703 17.4004 54.9069 17.8301 55.5801 17.8301ZM 67.9443 11.3096L 66.9346 11.2236C 66.1038 11.2236 65.5417 11.5889 65.248 12.3193L 65.248 20L 62.1973 20L 62.1973 8.37695L 65.0654 8.37695L 65.1514 9.63379C 65.6312 8.65267 66.2936 8.16211 67.1387 8.16211C 67.4824 8.16211 67.7617 8.20866 67.9766 8.30176L 67.9443 11.3096ZM 68.8896 13.834C 68.8896 11.929 69.2119 10.5075 69.8564 9.56934C 70.501 8.63118 71.4391 8.16211 72.6709 8.16211C 73.5661 8.16211 74.3109 8.54883 74.9053 9.32227L 74.9053 3.5L 77.9668 3.5L 77.9668 20L 75.2061 20L 75.0664 18.8184C 74.4434 19.7493 73.6413 20.2148 72.6602 20.2148C 71.4427 20.2148 70.5117 19.7493 69.8672 18.8184C 69.2298 17.8874 68.904 16.5195 68.8896 14.7148L 68.8896 13.834ZM 71.9404 14.5967C 71.9404 15.7425 72.0622 16.5446 72.3057 17.0029C 72.5492 17.4541 72.9609 17.6797 73.541 17.6797C 74.1426 17.6797 74.5973 17.4111 74.9053 16.874L 74.9053 11.5674C 74.6045 10.9945 74.1533 10.708 73.5518 10.708C 72.9932 10.708 72.585 10.9336 72.3271 11.3848C 72.0693 11.8359 71.9404 12.638 71.9404 13.791L 71.9404 14.5967ZM 89.5576 4.35938L 92.5117 15.6709L 95.4551 4.35938L 99.5801 4.35938L 99.5801 20L 96.4111 20L 96.4111 15.7676L 96.7012 9.24707L 93.5752 20L 91.4268 20L 88.3008 9.24707L 88.5908 15.7676L 88.5908 20L 85.4326 20L 85.4326 4.35938L 89.5576 4.35938ZM 101.621 13.8125C 101.621 12.0508 102.036 10.6686 102.867 9.66602C 103.698 8.66341 104.847 8.16211 106.315 8.16211C 107.798 8.16211 108.954 8.66341 109.785 9.66602C 110.616 10.6686 111.031 12.0579 111.031 13.834L 111.031 14.5752C 111.031 16.3441 110.619 17.7262 109.796 18.7217C 108.972 19.7171 107.819 20.2148 106.337 20.2148C 104.847 20.2148 103.687 19.7171 102.856 18.7217C 102.033 17.7191 101.621 16.3298 101.621 14.5537L 101.621 13.8125ZM 104.672 14.5752C 104.672 16.652 105.227 17.6904 106.337 17.6904C 107.361 17.6904 107.912 16.8239 107.991 15.0908L 108.002 13.8125C 108.002 12.7526 107.855 11.9684 107.562 11.46C 107.268 10.9443 106.853 10.6865 106.315 10.6865C 105.8 10.6865 105.395 10.9443 105.102 11.46C 104.815 11.9684 104.672 12.7526 104.672 13.8125L 104.672 14.5752ZM 112.524 13.834C 112.524 11.929 112.847 10.5075 113.491 9.56934C 114.136 8.63118 115.074 8.16211 116.306 8.16211C 117.201 8.16211 117.946 8.54883 118.54 9.32227L 118.54 3.5L 121.602 3.5L 121.602 20L 118.841 20L 118.701 18.8184C 118.078 19.7493 117.276 20.2148 116.295 20.2148C 115.077 20.2148 114.146 19.7493 113.502 18.8184C 112.865 17.8874 112.539 16.5195 112.524 14.7148L 112.524 13.834ZM 115.575 14.5967C 115.575 15.7425 115.697 16.5446 115.94 17.0029C 116.184 17.4541 116.596 17.6797 117.176 17.6797C 117.777 17.6797 118.232 17.4111 118.54 16.874L 118.54 11.5674C 118.239 10.9945 117.788 10.708 117.187 10.708C 116.628 10.708 116.22 10.9336 115.962 11.3848C 115.704 11.8359 115.575 12.638 115.575 13.791L 115.575 14.5967ZM 128.541 20.2148C 126.98 20.2148 125.762 19.7493 124.889 18.8184C 124.015 17.8874 123.578 16.5553 123.578 14.8223L 123.578 13.8984C 123.578 12.0651 123.979 10.6507 124.781 9.65527C 125.583 8.65983 126.733 8.16211 128.229 8.16211C 129.69 8.16211 130.79 8.63118 131.527 9.56934C 132.265 10.5003 132.641 11.8825 132.655 13.7158L 132.655 15.209L 126.607 15.209C 126.65 16.0684 126.84 16.6986 127.177 17.0996C 127.513 17.4935 128.033 17.6904 128.734 17.6904C 129.751 17.6904 130.6 17.3431 131.28 16.6484L 132.473 18.4854C 132.1 19.001 131.56 19.4199 130.851 19.7422C 130.142 20.0573 129.372 20.2148 128.541 20.2148ZM 126.629 13.082L 129.669 13.082L 129.669 12.8027C 129.655 12.1081 129.54 11.5817 129.325 11.2236C 129.11 10.8656 128.738 10.6865 128.208 10.6865C 127.678 10.6865 127.291 10.8763 127.048 11.2559C 126.812 11.6354 126.672 12.2441 126.629 13.082Z"/>
</defs>
</svg>
