<svg width="598" height="128" viewBox="0 0 598 128" version="1.1" xmlns="http://www.w3.org/2000/svg" xmlns:xlink="http://www.w3.org/1999/xlink">
<title>Title</title>
<desc>Created using Figma</desc>
<g id="Canvas" transform="translate(-1266 245)">
<g id="Title">
<g id="Mine Sweeper">
<use xlink:href="#path0_fill" transform="translate(1299 -237)" fill="#F6F4D2"/>
</g>
<g id="Rectangle 7">
<mask id="mask0_outline_ins">
<use xlink:href="#path1_fill" fill="white" transform="translate(1266 -245)"/>
</mask>
<g mask="url(#mask0_outline_ins)">
<use xlink:href="#path2_stroke_2x" transform="translate(1266 -245)" fill="#F6F4D2"/>
</g>
</g>
</g>
</g>
<defs>
<path id="path0_fill" d="M 18.4219 20.75L 36.2344 76.4375L 54.0469 20.75L 65.1094 20.75L 65.1094 89L 56.5312 89L 56.5312 62.4219L 57.3281 35.7969L 39.4688 89L 32.9062 89L 15.1406 35.9844L 15.9375 62.4219L 15.9375 89L 7.35938 89L 7.35938 20.75L 18.4219 20.75ZM 87.7031 89L 79.4062 89L 79.4062 38.2812L 87.7031 38.2812L 87.7031 89ZM 88.3594 24.8281C 88.3594 26.2344 87.9687 27.4062 87.1875 28.3438C 86.4063 29.2812 85.2188 29.75 83.625 29.75C 82.0625 29.75 80.8906 29.2812 80.1094 28.3438C 79.3281 27.4062 78.9375 26.2344 78.9375 24.8281C 78.9375 23.4219 79.3281 22.2344 80.1094 21.2656C 80.8906 20.2969 82.0625 19.8125 83.625 19.8125C 85.1875 19.8125 86.3594 20.3125 87.1406 21.3125C 87.9531 22.2812 88.3594 23.4531 88.3594 24.8281ZM 108.609 38.2812L 108.844 43.7656C 112.062 39.4844 116.172 37.3438 121.172 37.3438C 130.141 37.3438 134.687 43.3281 134.812 55.2969L 134.812 89L 126.562 89L 126.562 55.6719C 126.562 51.7031 125.891 48.8906 124.547 47.2344C 123.234 45.5469 121.25 44.7031 118.594 44.7031C 116.531 44.7031 114.672 45.3906 113.016 46.7656C 111.391 48.1406 110.078 49.9375 109.078 52.1562L 109.078 89L 100.781 89L 100.781 38.2812L 108.609 38.2812ZM 165.422 89.9375C 159.109 89.9375 154.266 88.0625 150.891 84.3125C 147.516 80.5312 145.797 75 145.734 67.7188L 145.734 61.5781C 145.734 54.0156 147.375 48.0937 150.656 43.8125C 153.969 39.5 158.578 37.3438 164.484 37.3438C 170.422 37.3438 174.859 39.2344 177.797 43.0156C 180.734 46.7969 182.234 52.6875 182.297 60.6875L 182.297 66.125L 153.984 66.125L 153.984 67.2969C 153.984 72.7344 155 76.6875 157.031 79.1562C 159.094 81.625 162.047 82.8594 165.891 82.8594C 168.328 82.8594 170.469 82.4062 172.312 81.5C 174.188 80.5625 175.937 79.0938 177.562 77.0938L 181.875 82.3438C 178.281 87.4062 172.797 89.9375 165.422 89.9375ZM 164.484 44.4688C 161.047 44.4688 158.5 45.6562 156.844 48.0312C 155.187 50.375 154.25 54.0312 154.031 59L 174 59L 174 57.875C 173.781 53.0625 172.906 49.625 171.375 47.5625C 169.875 45.5 167.578 44.4688 164.484 44.4688ZM 245.297 71.75C 245.297 68.3438 244.375 65.7344 242.531 63.9219C 240.688 62.1094 237.359 60.3438 232.547 58.625C 227.734 56.9062 224.047 55.1094 221.484 53.2344C 218.953 51.3281 217.047 49.1719 215.766 46.7656C 214.516 44.3281 213.891 41.5469 213.891 38.4219C 213.891 33.0156 215.687 28.5625 219.281 25.0625C 222.906 21.5625 227.641 19.8125 233.484 19.8125C 237.484 19.8125 241.047 20.7188 244.172 22.5312C 247.297 24.3125 249.703 26.7969 251.391 29.9844C 253.078 33.1719 253.922 36.6719 253.922 40.4844L 245.297 40.4844C 245.297 36.2656 244.281 33 242.25 30.6875C 240.219 28.375 237.297 27.2188 233.484 27.2188C 230.016 27.2188 227.328 28.1875 225.422 30.125C 223.516 32.0625 222.562 34.7813 222.562 38.2812C 222.562 41.1562 223.594 43.5625 225.656 45.5C 227.719 47.4375 230.906 49.1719 235.219 50.7031C 241.937 52.9219 246.734 55.6563 249.609 58.9062C 252.516 62.1562 253.969 66.4062 253.969 71.6562C 253.969 77.1875 252.172 81.625 248.578 84.9688C 244.984 88.2813 240.094 89.9375 233.906 89.9375C 229.938 89.9375 226.266 89.0781 222.891 87.3594C 219.547 85.6094 216.906 83.1719 214.969 80.0469C 213.063 76.8906 212.109 73.2812 212.109 69.2188L 220.734 69.2188C 220.734 73.4375 221.906 76.7188 224.25 79.0625C 226.625 81.4062 229.844 82.5781 233.906 82.5781C 237.688 82.5781 240.531 81.6094 242.438 79.6719C 244.344 77.7344 245.297 75.0938 245.297 71.75ZM 301.922 74.4219L 309.609 38.2812L 317.812 38.2812L 305.391 89L 298.781 89L 288.891 52.7188L 279.234 89L 272.578 89L 260.25 38.2812L 268.406 38.2812L 276.281 73.5312L 285.703 38.2812L 292.266 38.2812L 301.922 74.4219ZM 344.672 89.9375C 338.359 89.9375 333.516 88.0625 330.141 84.3125C 326.766 80.5312 325.047 75 324.984 67.7188L 324.984 61.5781C 324.984 54.0156 326.625 48.0937 329.906 43.8125C 333.219 39.5 337.828 37.3438 343.734 37.3438C 349.672 37.3438 354.109 39.2344 357.047 43.0156C 359.984 46.7969 361.484 52.6875 361.547 60.6875L 361.547 66.125L 333.234 66.125L 333.234 67.2969C 333.234 72.7344 334.25 76.6875 336.281 79.1562C 338.344 81.625 341.297 82.8594 345.141 82.8594C 347.578 82.8594 349.719 82.4062 351.562 81.5C 353.438 80.5625 355.187 79.0938 356.812 77.0938L 361.125 82.3438C 357.531 87.4062 352.047 89.9375 344.672 89.9375ZM 343.734 44.4688C 340.297 44.4688 337.75 45.6562 336.094 48.0312C 334.437 50.375 333.5 54.0312 333.281 59L 353.25 59L 353.25 57.875C 353.031 53.0625 352.156 49.625 350.625 47.5625C 349.125 45.5 346.828 44.4688 343.734 44.4688ZM 389.672 89.9375C 383.359 89.9375 378.516 88.0625 375.141 84.3125C 371.766 80.5312 370.047 75 369.984 67.7188L 369.984 61.5781C 369.984 54.0156 371.625 48.0937 374.906 43.8125C 378.219 39.5 382.828 37.3438 388.734 37.3438C 394.672 37.3438 399.109 39.2344 402.047 43.0156C 404.984 46.7969 406.484 52.6875 406.547 60.6875L 406.547 66.125L 378.234 66.125L 378.234 67.2969C 378.234 72.7344 379.25 76.6875 381.281 79.1562C 383.344 81.625 386.297 82.8594 390.141 82.8594C 392.578 82.8594 394.719 82.4062 396.562 81.5C 398.438 80.5625 400.187 79.0938 401.812 77.0938L 406.125 82.3438C 402.531 87.4062 397.047 89.9375 389.672 89.9375ZM 388.734 44.4688C 385.297 44.4688 382.75 45.6562 381.094 48.0312C 379.437 50.375 378.5 54.0312 378.281 59L 398.25 59L 398.25 57.875C 398.031 53.0625 397.156 49.625 395.625 47.5625C 394.125 45.5 391.828 44.4688 388.734 44.4688ZM 453.188 66.0781C 453.188 74.1094 451.734 80.0938 448.828 84.0312C 445.953 87.9688 441.875 89.9375 436.594 89.9375C 431.5 89.9375 427.578 88.0156 424.828 84.1719L 424.828 108.5L 416.578 108.5L 416.578 38.2812L 424.078 38.2812L 424.5 43.9062C 427.281 39.5312 431.266 37.3438 436.453 37.3438C 442.016 37.3438 446.172 39.2813 448.922 43.1562C 451.672 47.0313 453.094 52.8281 453.188 60.5469L 453.188 66.0781ZM 444.938 61.3438C 444.938 55.6563 444.062 51.4687 442.312 48.7812C 440.563 46.0625 437.75 44.7031 433.875 44.7031C 429.906 44.7031 426.891 46.6875 424.828 50.6562L 424.828 77.0469C 426.859 80.9219 429.906 82.8594 433.969 82.8594C 437.719 82.8594 440.469 81.5156 442.219 78.8281C 444 76.1094 444.906 71.9687 444.938 66.4062L 444.938 61.3438ZM 482.016 89.9375C 475.703 89.9375 470.859 88.0625 467.484 84.3125C 464.109 80.5312 462.391 75 462.328 67.7188L 462.328 61.5781C 462.328 54.0156 463.969 48.0937 467.25 43.8125C 470.562 39.5 475.172 37.3438 481.078 37.3438C 487.016 37.3438 491.453 39.2344 494.391 43.0156C 497.328 46.7969 498.828 52.6875 498.891 60.6875L 498.891 66.125L 470.578 66.125L 470.578 67.2969C 470.578 72.7344 471.594 76.6875 473.625 79.1562C 475.688 81.625 478.641 82.8594 482.484 82.8594C 484.922 82.8594 487.063 82.4062 488.906 81.5C 490.781 80.5625 492.531 79.0938 494.156 77.0938L 498.469 82.3438C 494.875 87.4062 489.391 89.9375 482.016 89.9375ZM 481.078 44.4688C 477.641 44.4688 475.094 45.6562 473.438 48.0312C 471.781 50.375 470.844 54.0312 470.625 59L 490.594 59L 490.594 57.875C 490.375 53.0625 489.5 49.625 487.969 47.5625C 486.469 45.5 484.172 44.4688 481.078 44.4688ZM 529.828 46.0625C 528.672 45.8437 527.422 45.7344 526.078 45.7344C 521.828 45.7344 518.859 48.0625 517.172 52.7188L 517.172 89L 508.875 89L 508.875 38.2812L 516.938 38.2812L 517.078 43.4375C 519.297 39.375 522.438 37.3438 526.5 37.3438C 527.812 37.3438 528.906 37.5625 529.781 38L 529.828 46.0625Z"/>
<path id="path1_fill" d="M 0 0L 598 0L 598 128L 0 128L 0 0Z"/>
<path id="path2_stroke_2x" d="M 0 0L 0 -4L -4 -4L -4 0L 0 0ZM 598 0L 602 0L 602 -4L 598 -4L 598 0ZM 598 128L 598 132L 602 132L 602 128L 598 128ZM 0 128L -4 128L -4 132L 0 132L 0 128ZM 0 4L 598 4L 598 -4L 0 -4L 0 4ZM 594 0L 594 128L 602 128L 602 0L 594 0ZM 598 124L 0 124L 0 132L 598 132L 598 124ZM 4 128L 4 0L -4 0L -4 128L 4 128Z"/>
</defs>
</svg>
